<?xml version="1.0" standalone="no"?>
<!DOCTYPE svg PUBLIC "-//W3C//DTD SVG 20010904//EN"
 "http://www.w3.org/TR/2001/REC-SVG-20010904/DTD/svg10.dtd">
<svg version="1.0" xmlns="http://www.w3.org/2000/svg"
 width="512.000000pt" height="512.000000pt" viewBox="0 0 512.000000 512.000000"
 preserveAspectRatio="xMidYMid meet">
<metadata>
Created by potrace 1.15, written by Peter Selinger 2001-2017
</metadata>
<g transform="translate(0.000000,512.000000) scale(0.100000,-0.100000)"
fill="#000000" stroke="none">
<path d="M2503 4040 c-185 -38 -270 -200 -589 -1128 -52 -152 -158 -461 -236
-687 -143 -416 -173 -490 -251 -612 -56 -87 -77 -141 -84 -218 -11 -123 50
-247 147 -298 48 -25 63 -28 115 -24 77 6 123 29 140 71 8 18 21 77 30 132 29
179 132 449 205 537 65 77 162 102 453 119 317 18 464 -5 557 -88 82 -75 134
-195 220 -508 45 -163 54 -184 84 -213 44 -41 90 -53 201 -53 113 0 178 26
225 92 96 131 90 251 -19 448 -64 114 -73 137 -286 740 -508 1438 -495 1402
-576 1521 -53 79 -96 119 -154 145 -60 27 -125 36 -182 24z m113 -666 c34 -76
77 -186 97 -244 39 -116 207 -779 207 -816 0 -16 -10 -28 -30 -39 -49 -25
-228 -37 -480 -32 -232 4 -292 12 -303 41 -18 45 84 382 226 752 154 399 192
487 209 482 7 -3 41 -67 74 -144z"/>
</g>
</svg>
